<svg xmlns="http://www.w3.org/2000/svg" viewBox="0 0 100 100" preserveAspectRatio="xMidYMid slice"><rect width="100" height="100" fill="#F9FAFB"/><line x1="30" y1="22" x2="44" y2="42" stroke="#D1D6DB" stroke-width=".4"/><line x1="30" y1="22" x2="36" y2="32" stroke="#D1D6DB" stroke-width=".4"/><line x1="30" y1="22" x2="52" y2="16" stroke="#D1D6DB" stroke-width=".4"/><line x1="30" y1="22" x2="32" y2="22" stroke="#D1D6DB" stroke-width=".4"/><line x1="30" y1="22" x2="30" y2="28" stroke="#D1D6DB" stroke-width=".4"/><line x1="44" y1="42" x2="66" y2="58" stroke="#D1D6DB" stroke-width=".4"/><line x1="44" y1="42" x2="36" y2="32" stroke="#D1D6DB" stroke-width=".4"/><line x1="44" y1="42" x2="50" y2="64" stroke="#D1D6DB" stroke-width=".4"/><line x1="44" y1="42" x2="58" y2="33" stroke="#D1D6DB" stroke-width=".4"/><line x1="44" y1="42" x2="28" y2="56" stroke="#D1D6DB" stroke-width=".4"/><line x1="44" y1="42" x2="52" y2="16" stroke="#D1D6DB" stroke-width=".4"/><line x1="44" y1="42" x2="32" y2="22" stroke="#D1D6DB" stroke-width=".4"/><line x1="44" y1="42" x2="30" y2="28" stroke="#D1D6DB" stroke-width=".4"/><line x1="60" y1="14" x2="75" y2="11" stroke="#D1D6DB" stroke-width=".4"/><line x1="60" y1="14" x2="58" y2="33" stroke="#D1D6DB" stroke-width=".4"/><line x1="60" y1="14" x2="52" y2="16" stroke="#D1D6DB" stroke-width=".4"/><line x1="60" y1="14" x2="32" y2="22" stroke="#D1D6DB" stroke-width=".4"/><line x1="89" y1="28" x2="90" y2="34" stroke="#D1D6DB" stroke-width=".4"/><line x1="89" y1="28" x2="75" y2="11" stroke="#D1D6DB" stroke-width=".4"/><line x1="89" y1="61" x2="90" y2="34" stroke="#D1D6DB" stroke-width=".4"/><line x1="89" y1="61" x2="66" y2="58" stroke="#D1D6DB" stroke-width=".4"/><line x1="90" y1="34" x2="75" y2="11" stroke="#D1D6DB" stroke-width=".4"/><line x1="66" y1="58" x2="50" y2="64" stroke="#D1D6DB" stroke-width=".4"/><line x1="66" y1="58" x2="58" y2="33" stroke="#D1D6DB" stroke-width=".4"/><line x1="75" y1="11" x2="58" y2="33" stroke="#D1D6DB" stroke-width=".4"/><line x1="75" y1="11" x2="52" y2="16" stroke="#D1D6DB" stroke-width=".4"/><line x1="36" y1="32" x2="58" y2="33" stroke="#D1D6DB" stroke-width=".4"/><line x1="36" y1="32" x2="28" y2="56" stroke="#D1D6DB" stroke-width=".4"/><line x1="36" y1="32" x2="52" y2="16" stroke="#D1D6DB" stroke-width=".4"/><line x1="36" y1="32" x2="32" y2="22" stroke="#D1D6DB" stroke-width=".4"/><line x1="36" y1="32" x2="30" y2="28" stroke="#D1D6DB" stroke-width=".4"/><line x1="50" y1="64" x2="49" y2="90" stroke="#D1D6DB" stroke-width=".4"/><line x1="50" y1="64" x2="28" y2="56" stroke="#D1D6DB" stroke-width=".4"/><line x1="58" y1="33" x2="52" y2="16" stroke="#D1D6DB" stroke-width=".4"/><line x1="58" y1="33" x2="32" y2="22" stroke="#D1D6DB" stroke-width=".4"/><line x1="58" y1="33" x2="30" y2="28" stroke="#D1D6DB" stroke-width=".4"/><line x1="28" y1="56" x2="30" y2="28" stroke="#D1D6DB" stroke-width=".4"/><line x1="52" y1="16" x2="32" y2="22" stroke="#D1D6DB" stroke-width=".4"/><line x1="52" y1="16" x2="30" y2="28" stroke="#D1D6DB" stroke-width=".4"/><line x1="32" y1="22" x2="30" y2="28" stroke="#D1D6DB" stroke-width=".4"/><circle cx="30" cy="22" r="1.8" fill="#3182F6"/><circle cx="44" cy="42" r="1.2" fill="#D1D6DB"/><circle cx="60" cy="14" r="1.2" fill="#D1D6DB"/><circle cx="89" cy="28" r="1.2" fill="#D1D6DB"/><circle cx="89" cy="61" r="1.2" fill="#D1D6DB"/><circle cx="90" cy="34" r="1.2" fill="#D1D6DB"/><circle cx="66" cy="58" r="1.8" fill="#3182F6"/><circle cx="75" cy="11" r="1.2" fill="#D1D6DB"/><circle cx="36" cy="32" r="1.2" fill="#D1D6DB"/><circle cx="50" cy="64" r="1.2" fill="#D1D6DB"/><circle cx="49" cy="90" r="1.2" fill="#D1D6DB"/><circle cx="58" cy="33" r="1.2" fill="#D1D6DB"/><circle cx="28" cy="56" r="1.8" fill="#3182F6"/><circle cx="52" cy="16" r="1.2" fill="#D1D6DB"/><circle cx="32" cy="22" r="1.2" fill="#D1D6DB"/><circle cx="30" cy="28" r="1.2" fill="#D1D6DB"/></svg>